<svg width="192" height="192" viewBox="0 0 192 192" fill="none" xmlns="http://www.w3.org/2000/svg">
    <path d="M15.4752 136.666C15.8976 138.086 16.7808 139.699 18.24 139.699C19.6224 139.699 20.5824 138.317 20.9664 136.973C21.888 133.939 21.3888 130.637 20.16 127.718C18.9312 124.8 17.1264 122.189 15.2832 119.616C14.8224 118.963 14.208 118.272 13.44 118.349C12.7488 118.426 12.2496 119.155 12.2112 119.885C12.2112 120.614 12.4032 121.306 12.7488 121.958C13.824 124.416 14.6688 126.106 14.6304 128.755C14.592 131.405 14.592 134.131 15.4752 136.666Z" fill="white"/>
    <path d="M146.88 30.0288C146.611 30.0288 146.304 29.9904 146.035 29.9136C142.579 28.9536 139.123 27.84 135.744 26.6112C131.059 24.8832 126.451 22.8864 121.997 20.6592C118.349 18.816 115.354 18.0096 111.629 16.9728L110.477 16.6656C99.9552 13.7472 89.664 12.3648 79.7952 12.5568H79.7184C78.2976 12.5952 76.8384 12.5952 75.6096 11.7504C74.7648 11.2128 74.304 10.2144 74.4192 9.216C74.7264 7.3728 77.0688 6.9504 77.7984 6.7968C88.32 4.7232 100.032 5.4912 112.589 9.1008C123.264 12.1728 133.21 16.7808 144.845 22.7712C146.112 23.3856 147.302 24.1152 148.454 24.9216C149.606 25.6896 149.99 27.1872 149.376 28.4544C148.954 29.3376 147.955 29.9904 146.88 30.0288ZM146.189 29.376C147.264 29.6832 148.454 29.1456 148.915 28.1088C149.414 27.1104 149.107 25.92 148.186 25.3056C147.034 24.5376 145.843 23.8464 144.614 23.232C132.979 17.28 123.072 12.672 112.435 9.6384C99.9936 6.0672 88.3968 5.2992 77.9136 7.3344C76.0704 7.68 75.1488 8.3328 74.9568 9.2928C74.8416 10.0992 75.2256 10.8672 75.9168 11.2896C76.992 12.0576 78.3744 12.0192 79.68 11.9808H79.7568C89.664 11.7888 100.032 13.1712 110.592 16.128L111.744 16.4352C115.546 17.472 118.541 18.3168 122.227 20.16C126.682 22.3872 131.251 24.384 135.936 26.0736C139.315 27.3024 142.771 28.416 146.189 29.376Z" fill="white"/>
    <path d="M55.68 19.3152C53.568 19.3152 53.0304 18.2784 52.8768 17.6256C52.5312 16.0512 53.952 13.8624 55.872 12.9792C59.904 11.1744 64.32 10.3296 68.7744 10.4832C69.6192 10.5216 70.6176 10.6368 71.1936 11.328C72.0384 12.288 71.6544 13.7856 70.8096 14.6304C69.9648 15.4752 68.736 15.744 67.776 16.0128L65.3568 16.6272C63.7824 17.0112 62.1312 17.4336 60.5568 17.856C59.9808 18.0096 59.4432 18.2016 58.9056 18.432C57.8304 18.8544 56.7168 19.2768 55.7184 19.3152H55.68ZM67.6608 11.0592C63.7056 11.0592 59.7504 11.904 56.1408 13.5168C54.4896 14.2464 53.184 16.2048 53.4528 17.5104C53.6832 18.5472 54.7968 18.7392 55.7184 18.7392C56.64 18.7392 57.6768 18.3168 58.7136 17.8944C59.2512 17.664 59.8272 17.472 60.4032 17.3184C62.016 16.896 63.6288 16.4736 65.2032 16.0896C66.0096 15.8976 66.816 15.7056 67.6224 15.4752C68.5824 15.2448 69.6576 14.9376 70.4256 14.2464C71.0784 13.632 71.3856 12.4416 70.8096 11.7504C70.3488 11.2512 69.5808 11.136 68.7744 11.0976C68.3904 11.0592 68.0064 11.0592 67.6608 11.0592Z" fill="white"/>
    <path d="M54.8352 172.877C51.8016 172.877 49.1904 170.803 48.4608 167.885C44.4672 151.718 40.6656 135.091 37.0944 118.502C33.5616 102.029 30.1824 85.1328 27.1104 68.2752C26.688 65.9712 26.112 63.5904 25.536 61.056C24.1536 55.1424 22.6944 48.9984 22.9248 43.4304C23.1552 37.5168 27.6864 35.8656 31.9488 34.7904C53.5296 29.2992 75.3408 25.4208 96.384 21.6576C104.947 20.1216 113.818 18.5472 122.381 16.896C124.954 16.3968 127.488 18.1632 128.141 20.8896L156.595 139.046C157.094 141.158 157.555 143.539 156.403 145.459C155.52 146.88 154.022 147.61 152.448 148.262C121.958 161.126 89.3568 169.382 55.5648 172.838C55.296 172.877 55.0656 172.877 54.8352 172.877ZM49.0368 167.731C49.728 170.65 52.4928 172.608 55.488 172.262C88.7808 168.96 121.344 160.666 152.179 147.763C153.677 147.149 155.098 146.458 155.866 145.19C156.902 143.462 156.48 141.197 156.019 139.238L127.565 21.0432C126.989 18.624 124.762 17.0496 122.496 17.472C113.933 19.1232 105.062 20.6976 96.4992 22.1952C75.4176 25.9584 53.6448 29.8368 32.1024 35.328C26.9568 36.6336 23.7312 38.4384 23.5392 43.4304C23.3088 48.8832 24.768 54.9888 26.1504 60.9024C26.7648 63.4368 27.3024 65.856 27.7248 68.16C30.8352 85.0176 34.176 101.914 37.7088 118.387C41.2032 134.938 45.0432 151.565 49.0368 167.731Z" fill="white"/>
    <path d="M35.4816 59.3664C35.6736 60.3648 35.9808 61.4784 36.864 61.9392C37.824 62.4384 38.9376 61.9392 39.8976 61.4784C48.768 57.1392 58.5216 55.3728 68.0064 53.6448L94.9248 48.768C96.4992 48.4608 98.304 48.0768 99.1872 46.656C100.07 45.2352 99.8016 43.4304 99.5328 41.7792L98.1504 33.9456C98.0352 33.3696 97.92 32.7168 97.4592 32.3712C96.9984 32.0256 96.3456 32.064 95.7696 32.1792L67.0464 36.9408C60.9408 37.9392 54.7968 38.976 48.7296 40.5888C45.6576 41.3952 42.6624 42.3552 39.7056 43.5072C37.5936 44.352 34.56 44.8896 34.2912 47.5392C33.8688 51.3408 34.7136 55.68 35.4816 59.3664Z" fill="white"/>
    <path d="M39.8976 72.5376C39.2448 72.96 38.5152 73.6128 38.592 74.4192C38.7456 75.072 39.2832 75.5712 39.936 75.6096C40.5888 75.648 41.2416 75.5328 41.8176 75.264C53.76 71.3472 66.0096 68.352 78.4512 66.3936C81.6768 65.8944 85.0176 65.3952 87.6288 63.36C88.128 62.976 88.6656 62.4 88.6272 61.7088C88.5504 61.056 88.0512 60.5184 87.3984 60.4032C86.784 60.3264 86.1312 60.3648 85.5552 60.5568L66.7008 65.1264C60.5184 66.624 54.144 68.736 47.808 69.6576C44.9664 70.0032 42.2784 70.9632 39.8976 72.5376Z" fill="white"/>
    <path d="M46.9248 100.186C46.272 100.608 45.5424 101.261 45.6576 102.067C45.8112 102.72 46.3488 103.181 47.0016 103.219C47.6544 103.258 48.2688 103.142 48.8448 102.874C60.6336 98.8416 72.7296 95.7312 85.0176 93.6192C88.2048 93.0816 91.5072 92.544 94.08 90.5088C94.5792 90.0864 95.1168 89.5488 95.0784 88.896C95.0016 88.2432 94.5024 87.744 93.888 87.6288C93.2736 87.552 92.6592 87.6288 92.0448 87.8208L73.3824 92.544C67.2768 94.1184 60.9792 96.3072 54.72 97.2672C51.9168 97.6512 49.2672 98.6496 46.9248 100.186Z" fill="white"/>
    <path d="M51.1873 117.197C50.5345 117.619 49.8049 118.272 49.9201 119.078C50.0353 119.731 50.6112 120.192 51.2256 120.23C51.8784 120.23 52.4928 120.115 53.0688 119.885C64.7808 115.776 76.7617 112.589 88.9729 110.4C92.1217 109.824 95.4241 109.248 97.9585 107.213C98.4577 106.79 98.9569 106.253 98.9185 105.6C98.8417 104.986 98.3424 104.448 97.7281 104.371C97.1137 104.294 96.4993 104.371 95.9233 104.563L77.4145 109.44C71.3473 111.053 65.1264 113.28 58.9056 114.278C56.1408 114.624 53.5297 115.661 51.1873 117.197Z" fill="#D8DB2F"/>
    <path d="M49.4592 109.171C48.8832 109.594 48.5376 110.246 48.4992 110.938C48.4608 111.475 48.8064 111.974 49.3056 112.166C49.728 112.243 50.1888 112.128 50.5344 111.936C58.4064 108.672 66.624 106.33 75.0336 104.947C77.184 104.602 79.4112 104.256 81.2544 102.374C81.7152 101.952 81.984 101.414 82.0224 100.8C82.0608 100.262 81.792 99.7248 81.2928 99.456C80.8704 99.3408 80.448 99.3792 80.064 99.5328L67.392 103.142C63.2448 104.333 58.9824 106.138 54.7584 106.714C52.8 107.021 50.9568 107.866 49.4592 109.171Z" fill="#D8DB2F"/>
    <path d="M54.336 153.331C53.9905 153.37 53.6832 153.101 53.6448 152.755C53.568 152.371 53.8368 151.987 54.2208 151.91C59.136 150.835 64.0129 149.53 68.7745 147.955C69.1201 147.84 69.504 148.032 69.6192 148.378V148.416C69.7344 148.8 69.5041 149.184 69.1585 149.299C64.3201 150.912 59.4433 152.256 54.4513 153.293C54.4129 153.331 54.3744 153.331 54.336 153.331Z" fill="white"/>
    <path d="M55.4112 158.554C55.104 158.592 54.8352 158.4 54.72 158.093C54.6048 157.709 54.7968 157.325 55.1424 157.171C58.9824 155.674 62.976 154.483 67.008 153.6C67.3536 153.523 67.6992 153.754 67.776 154.099V154.138C67.8144 154.522 67.584 154.867 67.2 154.982C63.2448 155.827 59.328 157.018 55.5648 158.477C55.5648 158.515 55.488 158.554 55.4112 158.554Z" fill="white"/>
    <path d="M79.872 156.211C78.2592 156.288 76.6848 155.635 75.6096 154.406C75.3792 154.099 75.3792 153.677 75.6864 153.408C75.9552 153.139 76.3776 153.139 76.608 153.37C76.608 153.37 76.608 153.37 76.6464 153.408C77.4912 154.406 78.7968 154.906 80.1024 154.752C81.408 154.56 82.4832 153.677 82.9056 152.448C83.2896 151.258 82.752 149.837 81.7152 149.376C81.024 149.069 80.1408 149.107 79.2576 149.184C78.1056 149.261 76.9152 149.338 75.8784 148.685C74.5344 147.84 73.9584 145.92 74.5344 144.23C75.1488 142.694 76.4928 141.542 78.1056 141.235C79.6032 140.966 81.1008 141.312 82.368 142.195C82.6752 142.426 82.752 142.848 82.5216 143.155C82.3296 143.462 81.9072 143.578 81.6 143.386C80.64 142.694 79.488 142.426 78.336 142.618C77.2224 142.848 76.2624 143.616 75.84 144.653C75.456 145.69 75.8016 146.918 76.608 147.418C77.2992 147.84 78.2208 147.802 79.2192 147.725C80.2176 147.648 81.3312 147.571 82.2912 148.032C83.904 148.762 84.7488 150.912 84.1728 152.755C83.5584 154.522 82.0224 155.827 80.1792 156.096C80.064 156.211 79.9488 156.211 79.872 156.211Z" fill="#D8DB2F"/>
    <path d="M81.9072 157.632C81.6 157.67 81.2928 157.44 81.216 157.133L77.5296 139.853C77.4528 139.469 77.6832 139.085 78.0672 138.97C78.4128 138.893 78.7584 139.085 78.8736 139.43V139.469L82.56 156.749C82.6368 157.133 82.4064 157.517 82.0224 157.594L81.9072 157.632Z" fill="#D8DB2F"/>
    <path d="M93.0048 152.218C91.392 152.294 89.856 151.642 88.7808 150.413C88.5504 150.106 88.5504 149.683 88.8576 149.414C89.088 149.146 89.5104 149.146 89.7792 149.376L89.8176 149.414C90.6624 150.413 91.9296 150.912 93.1968 150.758C94.464 150.566 95.5392 149.683 95.9616 148.454C96.3456 147.264 95.808 145.882 94.8096 145.382C94.1184 145.075 93.2736 145.114 92.3904 145.19C91.2384 145.267 90.0864 145.344 89.0496 144.691C87.7056 143.885 87.168 141.926 87.744 140.275C88.32 138.739 89.664 137.626 91.2768 137.318C92.736 137.05 94.272 137.395 95.4624 138.278C95.7696 138.509 95.8464 138.931 95.616 139.238C95.424 139.546 95.0016 139.661 94.6944 139.469C93.7728 138.778 92.6208 138.509 91.4688 138.701C90.3552 138.931 89.4336 139.699 89.0112 140.736C88.6272 141.773 88.9728 143.002 89.7792 143.501C90.4704 143.923 91.392 143.885 92.352 143.808C93.312 143.731 94.4256 143.693 95.3856 144.154C96.96 144.883 97.8048 146.995 97.2288 148.877C96.6528 150.643 95.1552 151.949 93.312 152.218H93.0048Z" fill="#D8DB2F"/>
    <path d="M95.0401 153.638C94.7329 153.677 94.4257 153.446 94.3873 153.139L90.7777 135.936C90.7009 135.552 90.9313 135.168 91.3153 135.091C91.6609 135.014 92.0065 135.206 92.1217 135.552V135.59L95.7313 152.794C95.8081 153.178 95.5777 153.562 95.2321 153.638C95.1169 153.638 95.0785 153.638 95.0401 153.638Z" fill="#D8DB2F"/>
    <path d="M104.794 149.376C103.181 149.453 101.645 148.8 100.608 147.61C100.378 147.302 100.378 146.88 100.685 146.611C100.915 146.342 101.338 146.342 101.606 146.573L101.645 146.611C102.451 147.571 103.718 148.109 104.986 147.955C106.253 147.763 107.328 146.88 107.712 145.69C108.096 144.499 107.558 143.117 106.598 142.656C105.907 142.349 105.101 142.387 104.179 142.464C103.066 142.541 101.914 142.618 100.877 141.965C99.5712 141.158 98.9952 139.2 99.6096 137.549C100.186 136.013 101.53 134.899 103.104 134.592C104.563 134.362 106.061 134.707 107.251 135.552C107.558 135.782 107.635 136.205 107.405 136.512C107.213 136.819 106.829 136.934 106.522 136.742C106.522 136.742 106.522 136.742 106.483 136.742C105.562 136.09 104.41 135.782 103.296 135.974C102.182 136.205 101.261 136.973 100.838 138.01C100.454 139.008 100.8 140.275 101.606 140.736C102.298 141.158 103.181 141.12 104.141 141.043C105.101 140.966 106.176 140.928 107.136 141.389C108.71 142.118 109.517 144.23 108.941 146.074C108.365 147.84 106.867 149.107 105.024 149.414H104.794V149.376Z" fill="#D8DB2F"/>
    <path d="M106.79 150.797C106.483 150.835 106.176 150.605 106.138 150.298L102.643 133.171C102.566 132.787 102.797 132.442 103.142 132.326C103.488 132.25 103.834 132.442 103.91 132.787V132.826L107.405 149.952C107.482 150.336 107.251 150.682 106.906 150.797C106.867 150.797 106.829 150.797 106.79 150.797Z" fill="#D8DB2F"/>
    <path d="M118.963 92.8512C118.656 92.8512 118.387 92.6592 118.31 92.3904C118.195 92.0064 118.387 91.6224 118.733 91.4688C121.882 90.3168 125.069 89.3952 128.333 88.6656C128.678 88.5888 129.024 88.8192 129.101 89.1648V89.2032C129.178 89.5872 128.947 89.9328 128.563 90.048C125.376 90.7776 122.227 91.6992 119.117 92.8128C119.117 92.8128 119.04 92.8512 118.963 92.8512Z" fill="white"/>
    <path d="M120.077 97.0752C119.808 97.0752 119.578 96.9216 119.462 96.6912C119.309 96.3456 119.424 95.9232 119.77 95.7312C121.075 95.0016 122.534 94.5408 124.032 94.3488C124.378 94.3104 124.685 94.5792 124.723 94.9248V94.9632C124.762 95.3472 124.493 95.6928 124.109 95.7312C122.803 95.8848 121.498 96.2688 120.346 96.9216C120.269 97.0368 120.192 97.0368 120.077 97.0752Z" fill="white"/>
    <path d="M112.243 63.6288C111.936 63.6288 111.706 63.4368 111.59 63.168C111.475 62.8224 111.629 62.4 111.974 62.2464C115.738 60.672 119.693 59.4816 123.725 58.752C124.07 58.6752 124.416 58.944 124.493 59.2896V59.328C124.57 59.712 124.301 60.0576 123.955 60.1344C120 60.864 116.16 62.0544 112.474 63.5904C112.397 63.6288 112.32 63.6288 112.243 63.6288Z" fill="white"/>
    <path d="M114.547 67.4304C114.24 67.4304 113.971 67.2384 113.894 66.9312C113.779 66.5472 113.971 66.1632 114.355 66.0096C116.045 65.4336 117.811 65.1264 119.578 65.1264C119.962 65.1264 120.23 65.4336 120.23 65.8176C120.23 66.2016 119.962 66.5088 119.578 66.5472C117.926 66.5472 116.314 66.816 114.778 67.3536C114.662 67.392 114.624 67.4304 114.547 67.4304Z" fill="white"/>
    <path d="M48.0384 82.4448C56.7936 79.7952 65.5872 77.6832 74.2272 75.1104C75.1488 74.8416 76.1088 74.5344 76.8 73.8048L76.8384 73.7664C77.76 72.768 76.8 71.1936 75.5328 71.5392L60.3648 75.9552C55.6416 77.3376 50.2272 79.9104 45.312 79.3728C44.1984 79.2576 43.392 79.7568 42.2784 80.1792C38.7456 81.5232 43.2 83.9424 48.0384 82.4448Z" fill="white"/>
    <path d="M134.477 94.1568C132.288 93.6576 129.984 93.1968 127.91 93.9264C124.762 95.0016 123.418 98.3808 122.419 101.414L106.79 149.069C106.368 150.374 105.946 151.757 106.33 153.101C107.021 155.29 109.555 156.442 111.821 157.286L146.074 170.458C148.877 171.533 152.026 172.608 154.752 171.571C157.786 170.419 158.976 167.117 159.859 164.16L174.336 115.776C174.912 113.818 175.526 111.706 174.95 109.709C173.376 104.026 162.624 102.221 157.632 100.57C150.029 98.0736 142.31 95.9616 134.477 94.1568Z" fill="#D8DB2F"/>
    <path d="M162.778 124.032C161.856 123.994 160.973 123.802 160.09 123.533L127.411 113.933C126.566 113.702 125.414 113.357 124.762 112.474C123.878 111.36 124.109 109.862 124.378 108.557C124.915 106.061 125.568 102.912 127.603 100.762C129.331 98.9184 131.866 98.304 134.438 99.1104C137.165 99.9552 139.93 100.57 142.848 101.184L143.27 101.261C150.221 102.758 157.094 104.717 163.814 107.098C165.581 107.712 167.27 108.403 168.346 109.786C170.227 112.243 169.344 115.622 168.192 118.579C167.27 120.998 166.003 123.571 163.469 123.994C163.238 124.032 163.008 124.032 162.778 124.032ZM128.064 101.146C126.144 103.181 125.491 106.214 124.992 108.672C124.762 109.862 124.531 111.206 125.261 112.128C125.76 112.781 126.643 113.088 127.642 113.357L160.32 122.957C161.28 123.264 162.432 123.571 163.469 123.379C165.696 122.995 166.886 120.614 167.731 118.349C168.806 115.507 169.651 112.32 167.962 110.093C167.002 108.826 165.389 108.173 163.699 107.597C157.018 105.216 150.182 103.296 143.232 101.798L142.81 101.722C139.891 101.107 137.126 100.493 134.362 99.648C131.942 98.9184 129.638 99.456 128.064 101.146Z" fill="#133041"/>
    <path d="M147.994 163.2C146.726 163.123 145.498 162.893 144.307 162.432L119.386 154.33C117.197 153.638 115.008 152.794 114.01 150.95C113.011 149.107 113.587 146.957 114.317 144.96L122.803 120.883C123.379 119.27 124.224 118.195 125.338 117.658C127.411 116.698 129.984 117.619 132.749 118.579C133.632 118.886 134.515 119.194 135.398 119.462L155.942 125.376C158.054 125.99 160.013 126.643 161.165 128.256C162.662 130.33 161.971 132.941 161.203 135.206L153.907 157.171C153.062 159.744 151.795 162.47 149.107 163.085C148.762 163.162 148.378 163.2 147.994 163.2ZM123.341 121.037L114.816 145.114C114.163 146.995 113.587 148.954 114.47 150.643C115.354 152.333 117.466 153.101 119.539 153.754L144.461 161.856C145.805 162.278 147.494 162.854 148.992 162.509C151.411 161.933 152.525 159.514 153.37 156.941L160.666 134.976C161.395 132.826 162.01 130.368 160.704 128.525C159.667 127.104 157.786 126.451 155.789 125.875L135.245 119.962C134.362 119.693 133.44 119.386 132.557 119.078C129.907 118.118 127.411 117.235 125.568 118.118C124.57 118.618 123.84 119.578 123.341 121.037Z" fill="#133041"/>
    <path d="M151.296 134.784C151.258 134.784 151.258 134.784 151.219 134.784C142.579 130.675 133.517 127.603 124.147 125.568C124.032 125.53 123.955 125.453 123.994 125.338C124.032 125.222 124.109 125.146 124.224 125.184C133.594 127.219 142.694 130.291 151.373 134.4C151.45 134.438 151.526 134.554 151.45 134.669C151.45 134.707 151.373 134.784 151.296 134.784Z" fill="#133041"/>
    <path d="M145.92 143.808C145.882 143.808 145.882 143.808 145.843 143.808C137.933 140.698 129.869 138.086 121.651 135.936C121.536 135.898 121.498 135.821 121.498 135.706C121.498 135.59 121.613 135.552 121.728 135.552C129.946 137.702 138.048 140.314 145.92 143.424C146.035 143.462 146.074 143.578 146.035 143.654C146.074 143.77 145.997 143.808 145.92 143.808Z" fill="#133041"/>
    <path d="M143.424 152.794H143.386L119.539 145.882C119.424 145.843 119.386 145.728 119.424 145.651C119.462 145.536 119.578 145.498 119.654 145.536L143.501 152.448C143.616 152.486 143.654 152.602 143.616 152.678C143.578 152.717 143.501 152.794 143.424 152.794Z" fill="#133041"/>
    <path d="M126.413 153.216H126.374C126.259 153.178 126.221 153.101 126.221 152.986C128.218 143.155 130.906 133.44 134.246 123.955C134.285 123.84 134.4 123.802 134.477 123.84C134.592 123.878 134.63 123.994 134.592 124.07C131.29 133.555 128.602 143.232 126.605 153.062C126.566 153.139 126.49 153.216 126.413 153.216Z" fill="#133041"/>
    <path d="M135.206 156.365H135.168C135.053 156.326 135.014 156.211 135.053 156.134L144 126.874C144.038 126.758 144.154 126.72 144.23 126.72C144.307 126.72 144.384 126.874 144.384 126.95L135.398 156.211C135.398 156.288 135.322 156.365 135.206 156.365Z" fill="#133041"/>
    <path d="M144.576 158.976H144.538C144.422 158.938 144.384 158.822 144.422 158.746L153.331 129.677C153.37 129.562 153.485 129.523 153.562 129.562C153.677 129.6 153.715 129.677 153.677 129.792L144.768 158.822C144.73 158.899 144.691 158.976 144.576 158.976Z" fill="#133041"/>
    <path d="M156.288 138.662C156.25 138.662 156.25 138.662 156.211 138.662L151.68 137.011C151.565 136.973 151.526 136.858 151.565 136.781C151.603 136.666 151.718 136.627 151.795 136.666L156.326 138.317C156.442 138.317 156.518 138.432 156.48 138.547C156.48 138.624 156.365 138.701 156.288 138.662Z" fill="#133041"/>
    <path d="M129.37 112.243H129.331C128.256 111.974 127.373 111.206 127.027 110.131C126.758 109.171 126.72 108.134 126.989 107.174C127.603 104.525 129.062 102.144 131.136 100.378C131.213 100.301 131.328 100.339 131.405 100.416C131.482 100.493 131.443 100.608 131.366 100.685C129.331 102.374 127.91 104.678 127.334 107.251C127.066 108.134 127.066 109.094 127.334 110.016C127.642 110.938 128.371 111.629 129.331 111.859C129.446 111.859 129.485 111.974 129.485 112.09C129.523 112.166 129.485 112.243 129.37 112.243Z" fill="#133041"/>
    <path d="M8.21755 123.878C7.37275 128.179 9.21595 132.941 12.9024 135.322C16.8191 137.856 22.4255 137.28 25.7279 134.016C29.0303 130.752 29.7215 125.146 27.2639 121.19C24.0767 116.006 15.5136 114.47 10.9824 118.771C9.52315 120.154 8.56315 121.92 8.21755 123.878Z" fill="white"/>
    <path d="M17.472 137.856C15.4752 137.856 13.4784 137.318 11.7888 136.243C8.06399 133.862 6.10559 129.024 6.98879 124.531C7.37279 122.534 8.37119 120.691 9.83039 119.27C11.9424 117.274 15.0528 116.39 18.3552 116.813C21.8496 117.274 24.9216 119.117 26.5728 121.766C29.1072 125.798 28.3776 131.597 24.9984 134.938C23.0016 136.819 20.2752 137.894 17.472 137.856ZM16.7808 117.235C14.3616 117.158 12.0576 118.042 10.2528 119.654C8.87039 120.998 7.94879 122.726 7.60319 124.608C6.75839 128.909 8.63999 133.478 12.1344 135.744C15.936 138.202 21.4272 137.626 24.6144 134.477C27.8016 131.328 28.4928 125.837 26.112 121.997C24.576 119.501 21.6576 117.734 18.3168 117.312C17.7792 117.274 17.28 117.235 16.7808 117.235Z" fill="white"/>
    <path d="M17.5104 136.858C15.6672 136.858 13.9008 136.358 12.3264 135.398C8.94724 133.21 7.14244 128.794 7.94884 124.685C8.29444 122.842 9.21604 121.19 10.5216 119.885C12.4416 118.042 15.2832 117.235 18.3168 117.619C21.504 118.042 24.3072 119.731 25.8048 122.15C28.1088 125.837 27.456 131.136 24.3456 134.17C22.5408 135.898 20.0832 136.858 17.5104 136.858ZM8.52484 124.762C7.75684 128.64 9.44644 132.826 12.6336 134.899C16.0896 137.126 21.0432 136.627 23.9616 133.747C26.88 130.867 27.4944 125.914 25.3056 122.419C23.8848 120.154 21.2352 118.579 18.2016 118.157C15.36 117.773 12.7104 118.541 10.9056 120.269C9.71524 121.498 8.87044 123.072 8.52484 124.762Z" fill="white"/>
    <path d="M19.7376 131.942C18.2784 132.557 16.6656 132.365 15.6288 131.443C15.36 131.136 15.3984 130.637 15.7056 130.368C15.9744 130.138 16.3584 130.099 16.6656 130.33C17.3184 130.944 18.432 130.867 19.2 130.522C19.776 130.291 20.2752 129.869 20.544 129.331C20.7744 128.87 20.6976 128.294 20.352 127.91C19.8528 127.411 18.8928 127.565 18.3552 127.68C18.1632 127.718 17.9328 127.795 17.7408 127.834C16.9344 128.102 16.0896 128.218 15.2448 128.141C13.3632 127.834 12.0576 126.067 12.3648 124.147C12.672 122.266 14.4384 120.96 16.3584 121.267C16.5504 121.306 16.704 121.344 16.8576 121.382C17.2416 121.574 17.3952 122.035 17.2416 122.419C17.088 122.726 16.7424 122.918 16.3968 122.842C15.36 122.573 14.2848 123.149 14.016 124.186C13.7472 125.222 14.3232 126.298 15.36 126.566C15.3984 126.566 15.4368 126.605 15.5136 126.605C16.1664 126.643 16.7808 126.566 17.3952 126.336C17.6256 126.259 17.856 126.221 18.0864 126.144C19.5456 125.798 20.736 126.029 21.504 126.797C22.272 127.642 22.464 128.87 22.0032 129.907C21.5808 130.829 20.7744 131.52 19.8528 131.904L19.7376 131.942Z" fill="#133041"/>
    <path d="M22.0032 133.133C21.696 133.248 21.3504 133.171 21.12 132.902C18.0864 129.293 15.3216 125.453 12.864 121.421C12.5952 121.075 12.6336 120.614 12.9792 120.346C13.3248 120.077 13.7856 120.115 14.0544 120.461C14.0928 120.499 14.1312 120.576 14.1696 120.614C16.5888 124.57 19.3152 128.371 22.272 131.942C22.5408 132.25 22.5024 132.749 22.1952 133.018C22.1184 133.056 22.0416 133.094 22.0032 133.133Z" fill="#133041"/>
    <path d="M175.142 83.8656C174.029 83.8272 172.915 83.5968 171.84 83.2128C168.269 82.0224 164.698 80.6016 161.28 79.1808C158.707 78.144 156.058 77.0688 153.37 76.1088C148.646 74.3808 141.504 72.1536 134.17 72.4224C133.21 72.4608 131.789 72.4992 131.059 71.5008C130.56 70.848 130.598 69.9648 130.675 69.1584C131.174 63.3216 131.904 57.4464 132.826 51.6864C133.133 49.8048 133.555 47.8464 134.976 46.6176C136.166 45.6192 137.818 45.3888 139.162 45.2736C146.918 44.736 154.522 47.6544 161.011 50.4192L163.085 51.3024C164.352 51.84 165.658 52.416 166.925 52.9152C170.342 54.4128 173.914 55.6032 177.523 56.4864C179.098 56.8704 180.71 57.1008 182.362 57.1392C184.282 57.1776 185.626 58.0224 186.048 59.3664C186.47 60.7104 186.048 61.9776 185.51 63.4368L180.019 79.104C179.405 80.832 178.752 82.4448 177.293 83.2512C176.602 83.6736 175.872 83.8656 175.142 83.8656ZM135.36 71.808C142.349 71.808 149.069 73.92 153.6 75.5712C156.25 76.5312 158.938 77.6064 161.51 78.6432C164.928 80.0256 168.499 81.4848 172.07 82.6368C173.798 83.2128 175.565 83.6352 176.986 82.8288C178.291 82.0992 178.906 80.6016 179.482 78.9888L184.973 63.3216C185.434 61.9776 185.818 60.7488 185.472 59.5968C185.011 57.984 182.938 57.792 182.323 57.7536C180.672 57.7152 179.021 57.4848 177.37 57.0624C173.722 56.1408 170.112 54.9504 166.656 53.4528C165.35 52.9152 164.045 52.3776 162.816 51.84L160.742 50.9568C154.291 48.2304 146.765 45.312 139.162 45.8496C137.856 45.9264 136.397 46.1568 135.322 47.04C134.054 48.1152 133.67 49.9584 133.363 51.7248C132.442 57.4848 131.75 63.36 131.213 69.1584C131.136 69.9264 131.136 70.6176 131.52 71.1168C132.058 71.808 133.056 71.8464 134.17 71.808C134.554 71.808 134.976 71.808 135.36 71.808Z" fill="white"/>
    <path d="M169.382 80.1408L169.19 80.064C160.435 75.84 150.49 71.04 140.083 70.6944H139.968L139.93 70.5792C138.662 68.1984 136.282 66.5856 133.594 66.3552L133.402 66.3168L135.629 52.1088H135.782C137.741 52.0704 139.546 50.9568 140.467 49.2288C140.659 48.9216 140.774 48.5376 140.813 48.1536C140.813 48.0768 140.813 48 140.774 47.8848C140.698 47.6544 140.698 47.424 140.813 47.1936C141.12 46.7712 142.08 46.9248 143.117 47.1168C143.309 47.1552 143.462 47.1936 143.539 47.1936C145.728 47.424 147.878 47.808 149.99 48.3072C154.138 49.2672 158.17 50.7264 162.01 52.608C163.085 53.1456 164.198 53.7216 165.235 54.2976C166.925 55.2192 168.691 56.1792 170.496 56.9472C173.914 58.4064 176.909 59.0208 179.674 58.7136H179.866V58.9056C179.981 60.864 181.171 62.592 182.938 63.3984L183.091 63.4752L183.053 63.6288C181.478 68.352 179.674 72.96 177.562 77.4528L177.485 77.6448L177.293 77.5296C174.758 75.9168 171.456 76.6848 169.843 79.1808C169.69 79.4112 169.574 79.6416 169.459 79.9104L169.382 80.1408ZM140.198 70.272C150.605 70.656 160.474 75.3792 169.19 79.6032C170.534 76.7232 173.99 75.4944 176.87 76.8768C177.024 76.9536 177.178 77.0304 177.331 77.1072C179.366 72.7296 181.133 68.2368 182.669 63.6672C180.941 62.784 179.75 61.056 179.558 59.136C176.794 59.3664 173.798 58.752 170.381 57.2928C168.576 56.5248 166.81 55.5648 165.082 54.6432C164.045 54.0672 162.97 53.4912 161.856 52.9536C156.096 50.112 149.914 48.2688 143.501 47.5392C143.386 47.5392 143.232 47.5008 143.04 47.4624C142.502 47.3856 141.312 47.1552 141.082 47.424C141.082 47.5392 141.082 47.6928 141.12 47.808C141.158 47.9232 141.158 48.0384 141.158 48.1536C141.12 48.576 140.966 48.9984 140.774 49.344C139.814 51.1488 137.971 52.3392 135.936 52.4544L133.824 65.9328C136.512 66.2784 138.893 67.8912 140.198 70.272Z" fill="white"/>
    <path d="M155.174 56.2944C152.256 57.7536 150.298 61.0176 150.566 64.2816C150.95 68.5056 154.675 71.6544 158.899 71.3088C161.856 71.04 164.429 69.12 165.466 66.3168C167.04 62.0544 164.045 56.2944 159.437 55.6032C157.978 55.3728 156.48 55.6032 155.174 56.2944Z" fill="white"/>
    <path d="M155.52 56.9088C152.87 58.2528 151.066 61.2096 151.334 64.1664C151.68 68.0064 155.059 70.8864 158.899 70.5408C161.626 70.3104 163.93 68.544 164.89 65.9712C166.31 62.0928 163.584 56.8704 159.398 56.2176C158.054 56.064 156.71 56.2944 155.52 56.9088Z" fill="white"/>
    <path d="M158.208 70.7712C157.901 70.7712 157.632 70.7712 157.325 70.7328C154.022 70.1952 151.488 67.5456 151.104 64.2048C150.835 61.2096 152.602 58.1376 155.405 56.7552C156.634 56.1408 158.054 55.9104 159.398 56.1024C161.357 56.4096 163.123 57.6768 164.275 59.6352C165.504 61.7088 165.773 64.128 165.043 66.0864C163.93 68.8896 161.242 70.7328 158.208 70.7712ZM155.597 57.0624C152.947 58.4064 151.334 61.1712 151.526 64.128C151.834 67.8912 155.136 70.656 158.899 70.3488C161.549 70.1184 163.776 68.3904 164.698 65.9328C165.389 64.0512 165.12 61.7472 163.968 59.7888C162.893 57.9456 161.203 56.7168 159.36 56.4096C158.054 56.256 156.749 56.4864 155.597 57.0624Z" fill="white"/>
    <path d="M156.518 66.9696C155.52 66.4704 154.906 65.4336 154.944 64.32C154.982 64.0128 155.251 63.744 155.558 63.7824C155.866 63.8208 156.134 64.0896 156.096 64.3968C156.058 65.0496 156.595 65.664 157.133 65.9712C157.517 66.2016 158.016 66.3168 158.477 66.2016C158.861 66.1248 159.168 65.8176 159.245 65.472C159.322 64.9344 158.784 64.4352 158.477 64.1664C158.362 64.0512 158.246 63.9744 158.093 63.8592C157.555 63.5136 157.094 63.0528 156.749 62.5536C156.058 61.2864 156.557 59.712 157.786 59.0592C159.053 58.368 160.627 58.8672 161.28 60.096C161.318 60.2112 161.395 60.288 161.434 60.4032C161.549 60.7104 161.395 61.0176 161.088 61.1328C160.781 61.248 160.474 61.0944 160.358 60.7872C160.051 60.0576 159.206 59.6736 158.477 59.9808C157.747 60.288 157.363 61.1328 157.67 61.8624C157.67 61.9008 157.709 61.9392 157.709 61.9776C157.978 62.3616 158.323 62.7072 158.707 62.976C158.861 63.0912 158.976 63.168 159.13 63.2832C160.013 64.0128 160.435 64.8192 160.32 65.5872C160.166 66.432 159.552 67.1232 158.707 67.3152C157.978 67.5072 157.21 67.392 156.518 66.9696Z" fill="white"/>
    <path d="M156.826 68.8512C156.595 68.736 156.518 68.4672 156.557 68.2368C157.325 64.7808 158.285 61.4016 159.552 58.0992C159.706 57.8304 160.013 57.7152 160.32 57.8304C160.55 57.9456 160.704 58.2144 160.627 58.4832C159.398 61.7472 158.438 65.0496 157.709 68.4288C157.632 68.736 157.325 68.928 157.018 68.8896C156.941 68.8896 156.902 68.8896 156.826 68.8512Z" fill="white"/>
    <path d="M168.499 64.5504C167.846 65.2416 167.578 66.24 167.77 67.1616C167.923 68.1984 168.614 69.1968 169.613 69.4656C170.496 69.6576 171.379 69.3504 171.994 68.6976C172.608 68.0448 172.877 67.1616 172.8 66.3168C172.57 64.2816 170.15 62.9376 168.499 64.5504Z" fill="white"/>
    <path d="M143.578 58.2144C142.771 59.2896 142.81 61.0176 143.885 61.824C144.384 62.1696 144.998 62.3616 145.613 62.2848C146.88 62.2464 148.032 61.44 148.493 60.2496C149.606 56.8704 145.382 55.8336 143.578 58.2144Z" fill="white"/>
    <path d="M152.448 52.7232C145.728 49.3824 138.586 46.2336 131.059 46.272C129.638 46.272 128.141 46.4256 126.989 47.3088C125.53 48.384 125.03 50.304 124.646 52.032C123.379 57.7536 122.304 63.5136 121.459 69.312C121.344 70.0416 121.267 70.8864 121.651 71.5008C122.227 72.384 123.456 72.4224 124.493 72.4608C131.098 72.6144 137.472 74.7264 143.539 77.3376C149.606 79.9488 155.405 83.0976 161.549 85.5552C163.2 86.208 165.082 86.8224 166.694 86.0544C168.154 85.3632 168.922 83.712 169.536 82.2144C171.686 77.1072 173.837 72 175.949 66.8928C176.448 65.664 176.986 64.32 176.717 63.0144C176.371 61.5168 174.835 60.9024 173.453 60.7872C171.802 60.6336 170.189 60.288 168.614 59.8272C165.043 58.7136 161.549 57.2928 158.208 55.6032C156.288 54.6816 154.368 53.6832 152.448 52.7232Z" fill="#D8DB2F"/>
    <path d="M159.091 82.56C159.053 82.56 159.014 82.56 159.014 82.5216C150.528 77.76 140.89 72.384 130.522 71.424C130.445 71.424 130.406 71.3856 130.368 71.3088C129.254 68.8512 126.989 67.1232 124.301 66.7008C124.186 66.7008 124.109 66.5856 124.147 66.4704L127.142 52.7616C127.142 52.6848 127.258 52.608 127.334 52.608C129.293 52.6848 131.136 51.6864 132.173 49.9968C132.365 49.6896 132.518 49.344 132.595 48.96C132.595 48.8832 132.595 48.8064 132.595 48.6912C132.518 48.4608 132.557 48.2304 132.672 48C133.018 47.616 133.978 47.808 134.976 48.0384C135.168 48.0768 135.322 48.1152 135.398 48.1536C137.549 48.5376 139.699 49.0368 141.773 49.6512C145.843 50.88 149.798 52.5696 153.485 54.6816C154.522 55.296 155.597 55.9488 156.595 56.5632C158.246 57.5616 159.936 58.6368 161.702 59.52C165.005 61.2096 168 61.9776 170.726 61.8624C170.765 61.8624 170.842 61.8624 170.88 61.9008C170.918 61.9392 170.918 61.9776 170.918 62.0544C170.918 64.0128 171.994 65.8176 173.722 66.7392C173.798 66.7776 173.837 66.8928 173.798 66.9696C171.955 71.5776 169.843 76.0704 167.501 80.448C167.462 80.4864 167.424 80.5248 167.386 80.5248C167.347 80.5248 167.27 80.5248 167.232 80.4864C164.851 78.72 161.472 79.2576 159.706 81.6768C159.552 81.9072 159.398 82.176 159.245 82.4064C159.206 82.4448 159.168 82.4832 159.13 82.4832C159.13 82.56 159.13 82.56 159.091 82.56ZM130.675 71.04C141.043 72.0384 150.605 77.376 159.053 82.0992C160.589 79.296 164.122 78.2976 166.925 79.8336C167.078 79.9104 167.194 79.9872 167.309 80.064C169.613 75.84 171.648 71.4624 173.414 66.9696C171.725 65.9712 170.65 64.2048 170.573 62.208C167.808 62.2848 164.851 61.4784 161.549 59.8272C159.782 58.944 158.093 57.8688 156.442 56.8704C155.443 56.256 154.368 55.6032 153.331 54.9888C147.763 51.8016 141.658 49.6128 135.36 48.4992C135.245 48.4992 135.091 48.4224 134.899 48.384C134.362 48.2688 133.171 47.9616 132.941 48.2304C132.902 48.3456 132.902 48.4992 132.941 48.6144C132.941 48.7296 132.941 48.8448 132.941 48.96C132.864 49.3824 132.71 49.7664 132.48 50.1504C131.405 51.8784 129.523 52.9536 127.45 52.9536L124.531 66.2784C127.219 66.816 129.485 68.5824 130.675 71.04Z" fill="#133041"/>
    <path d="M148.915 73.4208C148.454 73.4208 147.955 73.3824 147.494 73.2672C143.885 72.4608 141.235 69.3504 141.043 65.6256C140.966 62.2848 143.117 59.0208 146.304 57.6768C147.725 57.0624 149.261 56.9088 150.758 57.1776C152.909 57.6384 154.79 59.1744 155.904 61.44C157.094 63.8208 157.248 66.5088 156.326 68.6592C155.136 71.5392 152.026 73.4208 148.915 73.4208ZM149.338 57.6384C148.378 57.6384 147.418 57.8304 146.573 58.2144C143.616 59.4816 141.581 62.5152 141.658 65.6256C141.734 69.7344 145.152 72.96 149.222 72.8832C152.102 72.8064 154.714 71.0784 155.866 68.4288C156.749 66.432 156.595 63.936 155.482 61.7088C154.406 59.6352 152.678 58.176 150.72 57.7536C150.259 57.6768 149.798 57.6384 149.338 57.6384Z" fill="#133041"/>
    <path d="M146.765 58.5984C144.038 59.7504 142.08 62.6304 142.157 65.5872C142.234 69.4656 145.459 72.5376 149.338 72.4224C152.064 72.3456 154.522 70.7328 155.597 68.2368C157.248 64.4736 154.867 59.0592 150.72 58.176C149.376 57.9072 147.994 58.0608 146.765 58.5984Z" fill="#D8DB2F"/>
    <path d="M147.149 68.736C146.189 68.16 145.651 67.1232 145.728 66.0096C145.766 65.7024 146.074 65.472 146.381 65.5104C146.688 65.5488 146.918 65.856 146.88 66.1632C146.803 66.816 147.264 67.4688 147.802 67.8144C148.186 68.0832 148.646 68.1984 149.107 68.16C149.491 68.0832 149.798 67.8144 149.914 67.4688C149.99 66.9312 149.53 66.3936 149.222 66.1248L148.877 65.8176C148.378 65.4336 147.955 64.9728 147.648 64.3968C147.149 63.0528 147.802 61.5552 149.146 61.056C150.49 60.5568 151.987 61.2096 152.486 62.5536C152.563 62.8608 152.41 63.168 152.102 63.2448C151.795 63.3216 151.488 63.168 151.411 62.8608C151.142 62.0928 150.336 61.6704 149.568 61.9392C148.8 62.208 148.378 63.0144 148.646 63.7824C148.646 63.8208 148.685 63.8592 148.685 63.8976C148.915 64.32 149.261 64.6656 149.645 64.9344L150.029 65.28C150.874 66.048 151.219 66.8544 151.066 67.6608C150.874 68.5056 150.182 69.12 149.338 69.2736C148.608 69.3888 147.84 69.1968 147.187 68.7744L147.149 68.736Z" fill="#133041"/>
    <path d="M147.341 70.6176C147.149 70.464 147.034 70.2336 147.11 70.0032C148.07 66.624 149.261 63.2832 150.72 60.096C150.835 59.8272 151.181 59.6736 151.488 59.7888C151.757 59.904 151.91 60.2496 151.795 60.5568C150.374 63.7056 149.222 66.9696 148.262 70.3104C148.186 70.6176 147.878 70.7712 147.571 70.6944C147.456 70.656 147.418 70.656 147.341 70.6176Z" fill="#133041"/>
    <path d="M160.704 72.384C160.435 72.384 160.205 72.3456 159.974 72.2688C158.822 71.8848 158.17 70.656 158.093 69.6192C157.978 68.5824 158.323 67.5456 159.091 66.7776C159.859 66.0864 160.934 65.8944 161.894 66.3168C162.97 66.7776 163.699 67.8144 163.738 69.0048C163.776 69.9648 163.392 70.9248 162.701 71.5776C162.125 72.1152 161.434 72.384 160.704 72.384ZM159.437 67.2384C158.822 67.8528 158.515 68.6976 158.63 69.5808C158.707 70.4256 159.206 71.424 160.128 71.7312C160.896 71.9232 161.702 71.7312 162.24 71.1936C162.816 70.656 163.123 69.888 163.085 69.0816C163.046 68.1216 162.47 67.2768 161.587 66.8928C160.896 66.5472 160.013 66.7008 159.437 67.2384Z" fill="#133041"/>
    <path d="M136.55 63.6672C135.821 63.6672 135.168 63.4368 134.63 63.0144C134.131 62.592 133.824 61.9392 133.785 61.2864C133.709 60.4416 133.977 59.6352 134.515 59.0208C135.59 57.7536 137.433 57.4464 138.893 58.2528C140.045 58.944 140.352 60.2112 139.776 61.632C139.2 62.8992 137.933 63.6672 136.55 63.6672ZM134.976 59.3664C134.553 59.904 134.323 60.5568 134.4 61.248C134.438 61.7472 134.669 62.2464 135.053 62.592C135.475 62.9376 136.051 63.1296 136.589 63.0912C137.741 63.1296 138.816 62.4768 139.315 61.4016C139.776 60.2496 139.545 59.2512 138.662 58.7136C137.395 58.0224 135.859 58.3296 134.976 59.3664Z" fill="#133041"/>
    <path d="M122.918 19.8912C119.117 22.08 116.698 26.5728 117.312 30.912C117.965 35.52 122.074 39.3984 126.682 39.744C131.29 40.0896 135.974 36.9408 137.395 32.5248C139.2 26.7264 134.784 19.2384 128.563 18.624C126.605 18.4704 124.608 18.9312 122.918 19.8912Z" fill="white"/>
    <path d="M126.336 39.8976C126.067 39.8976 125.837 39.8976 125.568 39.8592C120.806 39.4752 116.582 35.4816 115.93 30.7584C115.315 26.3808 117.658 21.7344 121.651 19.4304C123.418 18.3936 125.453 17.9712 127.488 18.1248C130.368 18.432 133.094 20.16 134.938 22.9632C136.896 25.92 137.51 29.4528 136.589 32.4096C135.206 36.7488 130.829 39.8976 126.336 39.8976ZM126.605 18.6624C124.954 18.6624 123.379 19.1232 121.958 19.9296C118.157 22.08 115.93 26.496 116.506 30.6816C117.12 35.136 121.152 38.9376 125.645 39.2832C130.138 39.6288 134.707 36.5568 136.051 32.256C136.934 29.4528 136.32 26.112 134.477 23.2704C132.749 20.6208 130.176 18.9696 127.45 18.7008C127.142 18.7008 126.874 18.6624 126.605 18.6624Z" fill="white"/>
    <path d="M126.413 38.8992C126.182 38.8992 125.952 38.8992 125.722 38.8608C121.382 38.5152 117.504 34.8672 116.89 30.5664C116.314 26.5728 118.464 22.3104 122.112 20.2368C123.725 19.3152 125.568 18.8928 127.45 19.0464C130.099 19.3152 132.557 20.928 134.246 23.4624C136.013 26.1504 136.589 29.376 135.744 32.1024C134.554 36.0192 130.522 38.8992 126.413 38.8992ZM122.304 20.5056L122.458 20.7744C119.002 22.7328 116.966 26.7264 117.504 30.528C118.08 34.5984 121.728 38.016 125.798 38.3616C129.869 38.7072 134.054 35.904 135.245 31.9872C136.051 29.4528 135.514 26.3808 133.824 23.8464C132.25 21.4656 129.907 19.9296 127.45 19.6992C125.722 19.5456 123.955 19.9296 122.458 20.8128L122.304 20.5056Z" fill="white"/>
    <path d="M124.377 33.9072C122.957 33.1776 122.073 31.8336 122.073 30.4896C122.073 30.0672 122.419 29.7216 122.841 29.7216C123.264 29.7216 123.571 30.0672 123.571 30.4896C123.571 31.3728 124.301 32.1792 125.069 32.5248C125.606 32.832 126.259 32.9088 126.873 32.7552C127.373 32.6016 127.757 32.2176 127.833 31.68C127.872 30.9888 127.142 30.336 126.681 29.9904C126.489 29.8752 126.336 29.76 126.144 29.6064C125.414 29.184 124.8 28.6464 124.301 27.9936C123.302 26.3424 123.801 24.2304 125.414 23.1936C127.065 22.1952 129.177 22.6944 130.214 24.3072C130.291 24.4608 130.368 24.6144 130.445 24.768C130.637 25.152 130.521 25.6128 130.137 25.8048C129.753 25.9968 129.293 25.8816 129.101 25.4976C129.062 25.4592 129.062 25.3824 129.024 25.344C128.525 24.3456 127.334 23.8848 126.297 24.3456C125.337 24.9216 124.992 26.1504 125.568 27.1488C125.952 27.648 126.451 28.0704 126.989 28.3776C127.181 28.4928 127.373 28.6464 127.565 28.7616C128.793 29.6448 129.408 30.6816 129.331 31.7952C129.216 32.9472 128.409 33.9072 127.296 34.2144C126.297 34.4832 125.261 34.368 124.377 33.8688V33.9072Z" fill="#133041"/>
    <path d="M124.915 36.4032C124.608 36.2496 124.454 35.9424 124.493 35.5968C125.261 30.9504 126.336 26.3424 127.757 21.8496C127.834 21.4272 128.256 21.1584 128.64 21.2352C129.024 21.312 129.331 21.7344 129.254 22.1184C129.254 22.1952 129.216 22.2336 129.216 22.272C127.834 26.688 126.72 31.2192 125.99 35.8272C125.914 36.2496 125.53 36.5184 125.107 36.48C125.069 36.48 124.992 36.4416 124.915 36.4032Z" fill="#133041"/>
    <path d="M22.7712 125.53C18.9696 127.68 16.5504 132.211 17.1648 136.55C17.8176 141.158 21.9264 145.037 26.5344 145.382C31.1424 145.728 35.8272 142.579 37.2096 138.163C39.0144 132.365 34.5984 124.877 28.3776 124.262C26.4576 124.109 24.4608 124.57 22.7712 125.53Z" fill="white"/>
    <path d="M26.1888 145.536C25.92 145.536 25.6896 145.536 25.4208 145.498C20.6592 145.114 16.4352 141.12 15.744 136.397C15.1296 132.019 17.472 127.373 21.4656 125.069C23.232 124.032 25.2672 123.61 27.3024 123.763C30.1824 124.07 32.9088 125.798 34.752 128.602C36.7104 131.558 37.3248 135.091 36.4032 138.048C35.0976 142.349 30.6816 145.536 26.1888 145.536ZM21.8112 125.568C18.0096 127.718 15.744 132.134 16.3584 136.32C16.9728 140.774 21.0048 144.576 25.4976 144.922C29.9904 145.267 34.56 142.195 35.904 137.894C36.7872 135.091 36.1728 131.75 34.3296 128.909C32.6016 126.259 30.0288 124.608 27.3024 124.339C25.3824 124.186 23.4624 124.608 21.8112 125.568Z" fill="white"/>
    <path d="M26.304 144.538C26.0736 144.538 25.8432 144.538 25.6128 144.499C21.2736 144.154 17.3952 140.506 16.7808 136.205C16.2048 132.211 18.3552 127.949 22.0032 125.875C23.616 124.954 25.4592 124.531 27.3408 124.685C29.9904 124.954 32.448 126.566 34.1376 129.101C35.904 131.789 36.48 135.014 35.6352 137.741C34.4064 141.658 30.4128 144.538 26.304 144.538ZM26.5344 125.222C25.0368 125.222 23.5776 125.645 22.3104 126.374C18.8544 128.333 16.8192 132.326 17.3568 136.128C17.9328 140.16 21.5808 143.616 25.6512 143.962C29.7216 144.307 33.8688 141.504 35.0976 137.587C35.904 135.053 35.3664 132.019 33.6768 129.446C32.1024 127.066 29.76 125.53 27.3024 125.299C27.0336 125.261 26.7648 125.222 26.5344 125.222Z" fill="white"/>
    <path d="M24.2304 139.546C22.8096 138.816 21.9264 137.472 21.9264 136.128C21.9264 135.706 22.272 135.36 22.6944 135.36C23.1168 135.36 23.4624 135.706 23.4624 136.128C23.424 137.011 24.192 137.818 24.96 138.163C25.4976 138.47 26.1504 138.547 26.7648 138.394C27.264 138.24 27.648 137.856 27.7248 137.318C27.7632 136.627 27.0336 135.974 26.5728 135.629L26.0352 135.245C25.3056 134.822 24.6912 134.246 24.192 133.594C23.1936 131.981 23.6928 129.83 25.3056 128.794C26.9184 127.795 29.0688 128.294 30.1056 129.907C30.1824 130.061 30.2976 130.214 30.336 130.368C30.528 130.752 30.4128 131.213 30.0288 131.405C29.6448 131.597 29.184 131.482 28.992 131.098C28.9536 131.059 28.9536 130.982 28.9152 130.906C28.4544 129.946 27.3024 129.523 26.304 129.984C25.344 130.445 24.9216 131.597 25.3824 132.595C25.4208 132.634 25.4208 132.672 25.4592 132.71C25.8432 133.21 26.304 133.632 26.88 133.939C27.072 134.054 27.264 134.208 27.456 134.323C28.6848 135.206 29.2992 136.243 29.2224 137.357C29.1072 138.509 28.3008 139.469 27.1872 139.776C26.1888 140.16 25.152 140.045 24.2304 139.546Z" fill="#133041"/>
    <path d="M24.8064 142.042C24.4992 141.888 24.3456 141.581 24.384 141.235C25.152 136.589 26.2272 131.981 27.648 127.45C27.7248 127.027 28.1088 126.758 28.5312 126.835C28.9536 126.912 29.2224 127.296 29.1456 127.718C29.1456 127.795 29.1072 127.834 29.0688 127.91C27.6864 132.326 26.6112 136.858 25.8432 141.466C25.7664 141.888 25.3824 142.157 24.96 142.08C24.9216 142.08 24.8448 142.08 24.8064 142.042Z" fill="#133041"/>
    <path d="M22.0032 81.5616C31.2576 70.7712 40.7808 59.7888 53.1456 52.8C49.92 62.8224 44.2368 71.8848 37.5936 80.0256C30.9504 88.1664 23.3088 95.424 15.6672 102.682C14.4768 103.795 12.3648 106.022 10.5216 105.254C9.06245 104.678 8.90885 102.605 9.06245 101.299C9.60005 96.7296 13.5936 92.0064 16.2816 88.4736C18.1248 86.0928 20.0448 83.8272 22.0032 81.5616Z" fill="#D8DB2F"/>
    <path d="M9.21605 103.258C9.52325 102.835 9.94565 102.49 10.4448 102.259C10.9824 102.029 11.5584 102.182 11.904 102.682C12.2496 103.258 11.8272 103.987 11.4048 104.525C10.7136 105.408 7.33445 110.861 6.41285 109.555C5.26085 107.942 8.37125 104.256 9.21605 103.258Z" fill="white"/>
    <path d="M23.4624 99.6096C25.9584 97.0368 27.3792 93.6192 28.6464 90.2784C29.2224 88.7808 29.76 87.2448 30.6816 85.9392C31.6032 84.6336 32.9472 83.5584 34.56 83.328C35.328 83.1744 36.096 83.4048 36.672 83.8656C37.2096 84.4032 37.3632 85.3632 36.8256 85.9008C36.288 86.4384 35.4816 86.3232 34.7904 86.4384C32.9856 86.784 31.9104 88.5504 31.104 90.2016C29.4528 93.5808 28.1088 97.1136 25.8432 100.07C23.5776 103.027 20.1984 105.485 16.4736 105.446C13.824 105.408 13.0176 103.718 15.936 103.181C18.8928 102.605 21.2736 101.914 23.4624 99.6096Z" fill="white"/>
    <path d="M48.768 63.4368C47.9232 68.928 44.1216 73.4592 40.4736 77.6832C39.5136 78.7968 38.4768 79.9488 37.0944 80.4096C34.9824 81.1008 32.7168 79.9488 30.912 78.6432C29.2992 77.4912 27.648 75.84 27.84 73.8816C27.9552 72.5376 28.9536 71.424 29.9136 70.464C33.1776 67.0464 36.5952 63.744 40.128 60.6336C41.9712 59.0208 42.3552 59.4048 43.968 60.9792C44.2752 61.2096 48.6528 64.0128 48.768 63.4368Z" fill="white"/>
    <path d="M19.6225 98.9952C19.4689 99.84 18.5857 100.493 17.7409 100.608C16.8577 100.685 15.9745 100.493 15.1681 100.109C13.5169 99.4176 12.0961 98.304 11.0593 96.8448C10.6753 96.2304 10.2913 94.2336 11.6353 94.7712C12.4417 95.0784 13.2481 96.2304 13.9777 96.7296C14.4001 96.96 19.5457 99.4944 19.6225 98.9952Z" fill="white"/>
</svg>
